<svg height="9390" width="720" xmlns="http://www.w3.org/2000/svg">
<rect height="9390" fill="#555" width="720"></rect>
<text fill="#7f7" font-family="Courier New" font-size="12" xml:space="preserve">
<tspan x="10" y="26"></tspan>
<tspan x="10" y="42">&gt; npmdoc-jsonlint@0.0.1 test /home/travis/build/npmdoc/node-npmdoc-jsonlint</tspan>
<tspan x="10" y="58">&gt; (set -e; export PORT=$(utility2 shServerPortRandom); utility2 test test.js)</tspan>
<tspan x="10" y="74"></tspan>
<tspan x="10" y="90"></tspan>
<tspan x="10" y="106">[MODE_BUILD=npmTest] - 2017-04-07T04:31:38Z - npm-testing /home/travis/build/npmdoc/node-npmdoc-\</tspan>
<tspan x="10" y="122">jsonlint</tspan>
<tspan x="10" y="138"></tspan>
<tspan x="10" y="154"></tspan>
<tspan x="10" y="170">covering $ /home/travis/.nvm/versions/node/v6.10.2/bin/node /home/travis/build/npmdoc/node-npmdo\</tspan>
<tspan x="10" y="186">c-jsonlint/test.js</tspan>
<tspan x="10" y="202">merging file:///home/travis/build/npmdoc/node-npmdoc-jsonlint/tmp/build/test-report.json to test\</tspan>
<tspan x="10" y="218">-report</tspan>
<tspan x="10" y="234">&gt; server listening on http-port 65517</tspan>
<tspan x="10" y="250">var jsonlint = (function(){var require=true,module=false;var exports={};/* Jison generated parse\</tspan>
<tspan x="10" y="266">r */</tspan>
<tspan x="10" y="282">var jsonlint = (function(){</tspan>
<tspan x="10" y="298">var parser = {trace: function trace() { },</tspan>
<tspan x="10" y="314">yy: {},</tspan>
<tspan x="10" y="330">symbols_: {"error":2,"JSONString":3,"STRING":4,"JSONNumber":5,"NUMBER":6,"JSONNullLiteral":7,"NU\</tspan>
<tspan x="10" y="346">LL":8,"JSONBooleanLiteral":9,"TRUE":10,"FALSE":11,"JSONText":12,"JSONValue":13,"EOF":14,"JSONObj\</tspan>
<tspan x="10" y="362">ect":15,"JSONArray":16,"{":17,"}":18,"JSONMemberList":19,"JSONMember":20,":":21,",":22,"[":23,"]\</tspan>
<tspan x="10" y="378">":24,"JSONElementList":25,"$accept":0,"$end":1},</tspan>
<tspan x="10" y="394">terminals_: {2:"error",4:"STRING",6:"NUMBER",8:"NULL",10:"TRUE",11:"FALSE",14:"EOF",17:"{",18:"}\</tspan>
<tspan x="10" y="410">",21:":",22:",",23:"[",24:"]"},</tspan>
<tspan x="10" y="426">productions_: [0,[3,1],[5,1],[7,1],[9,1],[9,1],[12,2],[13,1],[13,1],[13,1],[13,1],[13,1],[13,1],\</tspan>
<tspan x="10" y="442">[15,2],[15,3],[20,3],[19,1],[19,3],[16,2],[16,3],[25,1],[25,3]],</tspan>
<tspan x="10" y="458">performAction: function anonymous(yytext,yyleng,yylineno,yy,yystate,$$,_$) {</tspan>
<tspan x="10" y="474"></tspan>
<tspan x="10" y="490">var $0 = $$.length - 1;</tspan>
<tspan x="10" y="506">switch (yystate) {</tspan>
<tspan x="10" y="522">case 1: // replace escaped characters with actual character</tspan>
<tspan x="10" y="538">          this.$ = yytext.replace(/\\(\\|")/g, "$"+"1")</tspan>
<tspan x="10" y="554">                     .replace(/\\n/g,'\n')</tspan>
<tspan x="10" y="570">                     .replace(/\\r/g,'\r')</tspan>
<tspan x="10" y="586">                     .replace(/\\t/g,'\t')</tspan>
<tspan x="10" y="602">                     .replace(/\\v/g,'\v')</tspan>
<tspan x="10" y="618">                     .replace(/\\f/g,'\f')</tspan>
<tspan x="10" y="634">                     .replace(/\\b/g,'\b');</tspan>
<tspan x="10" y="650">        </tspan>
<tspan x="10" y="666">break;</tspan>
<tspan x="10" y="682">case 2:this.$ = Number(yytext);</tspan>
<tspan x="10" y="698">break;</tspan>
<tspan x="10" y="714">case 3:this.$ = null;</tspan>
<tspan x="10" y="730">break;</tspan>
<tspan x="10" y="746">case 4:this.$ = true;</tspan>
<tspan x="10" y="762">break;</tspan>
<tspan x="10" y="778">case 5:this.$ = false;</tspan>
<tspan x="10" y="794">break;</tspan>
<tspan x="10" y="810">case 6:return this.$ = $$[$0-1];</tspan>
<tspan x="10" y="826">break;</tspan>
<tspan x="10" y="842">case 13:this.$ = {};</tspan>
<tspan x="10" y="858">break;</tspan>
<tspan x="10" y="874">case 14:this.$ = $$[$0-1];</tspan>
<tspan x="10" y="890">break;</tspan>
<tspan x="10" y="906">case 15:this.$ = [$$[$0-2], $$[$0]];</tspan>
<tspan x="10" y="922">break;</tspan>
<tspan x="10" y="938">case 16:this.$ = {}; this.$[$$[$0][0]] = $$[$0][1];</tspan>
<tspan x="10" y="954">break;</tspan>
<tspan x="10" y="970">case 17:this.$ = $$[$0-2]; $$[$0-2][$$[$0][0]] = $$[$0][1];</tspan>
<tspan x="10" y="986">break;</tspan>
<tspan x="10" y="1002">case 18:this.$ = [];</tspan>
<tspan x="10" y="1018">break;</tspan>
<tspan x="10" y="1034">case 19:this.$ = $$[$0-1];</tspan>
<tspan x="10" y="1050">break;</tspan>
<tspan x="10" y="1066">case 20:this.$ = [$$[$0]];</tspan>
<tspan x="10" y="1082">break;</tspan>
<tspan x="10" y="1098">case 21:this.$ = $$[$0-2]; $$[$0-2].push($$[$0]);</tspan>
<tspan x="10" y="1114">break;</tspan>
<tspan x="10" y="1130">}</tspan>
<tspan x="10" y="1146">},</tspan>
<tspan x="10" y="1162">table: [{3:5,4:[1,12],5:6,6:[1,13],7:3,8:[1,9],9:4,10:[1,10],11:[1,11],12:1,13:2,15:7,16:8,17:[1\</tspan>
<tspan x="10" y="1178">,14],23:[1,15]},{1:[3]},{14:[1,16]},{14:[2,7],18:[2,7],22:[2,7],24:[2,7]},{14:[2,8],18:[2,8],22:\</tspan>
<tspan x="10" y="1194">[2,8],24:[2,8]},{14:[2,9],18:[2,9],22:[2,9],24:[2,9]},{14:[2,10],18:[2,10],22:[2,10],24:[2,10]},\</tspan>
<tspan x="10" y="1210">{14:[2,11],18:[2,11],22:[2,11],24:[2,11]},{14:[2,12],18:[2,12],22:[2,12],24:[2,12]},{14:[2,3],18\</tspan>
<tspan x="10" y="1226">:[2,3],22:[2,3],24:[2,3]},{14:[2,4],18:[2,4],22:[2,4],24:[2,4]},{14:[2,5],18:[2,5],22:[2,5],24:[\</tspan>
<tspan x="10" y="1242">2,5]},{14:[2,1],18:[2,1],21:[2,1],22:[2,1],24:[2,1]},{14:[2,2],18:[2,2],22:[2,2],24:[2,2]},{3:20\</tspan>
<tspan x="10" y="1258">,4:[1,12],18:[1,17],19:18,20:19},{3:5,4:[1,12],5:6,6:[1,13],7:3,8:[1,9],9:4,10:[1,10],11:[1,11],\</tspan>
<tspan x="10" y="1274">13:23,15:7,16:8,17:[1,14],23:[1,15],24:[1,21],25:22},{1:[2,6]},{14:[2,13],18:[2,13],22:[2,13],24\</tspan>
<tspan x="10" y="1290">:[2,13]},{18:[1,24],22:[1,25]},{18:[2,16],22:[2,16]},{21:[1,26]},{14:[2,18],18:[2,18],22:[2,18],\</tspan>
<tspan x="10" y="1306">24:[2,18]},{22:[1,28],24:[1,27]},{22:[2,20],24:[2,20]},{14:[2,14],18:[2,14],22:[2,14],24:[2,14]}\</tspan>
<tspan x="10" y="1322">,{3:20,4:[1,12],20:29},{3:5,4:[1,12],5:6,6:[1,13],7:3,8:[1,9],9:4,10:[1,10],11:[1,11],13:30,15:7\</tspan>
<tspan x="10" y="1338">,16:8,17:[1,14],23:[1,15]},{14:[2,19],18:[2,19],22:[2,19],24:[2,19]},{3:5,4:[1,12],5:6,6:[1,13],\</tspan>
<tspan x="10" y="1354">7:3,8:[1,9],9:4,10:[1,10],11:[1,11],13:31,15:7,16:8,17:[1,14],23:[1,15]},{18:[2,17],22:[2,17]},{\</tspan>
<tspan x="10" y="1370">18:[2,15],22:[2,15]},{22:[2,21],24:[2,21]}],</tspan>
<tspan x="10" y="1386">defaultActions: {16:[2,6]},</tspan>
<tspan x="10" y="1402">parseError: function parseError(str, hash) {</tspan>
<tspan x="10" y="1418">    throw new Error(str);</tspan>
<tspan x="10" y="1434">},</tspan>
<tspan x="10" y="1450">parse: function parse(input) {</tspan>
<tspan x="10" y="1466">    var self = this,</tspan>
<tspan x="10" y="1482">        stack = [0],</tspan>
<tspan x="10" y="1498">        vstack = [null], // semantic value stack</tspan>
<tspan x="10" y="1514">        lstack = [], // location stack</tspan>
<tspan x="10" y="1530">        table = this.table,</tspan>
<tspan x="10" y="1546">        yytext = '',</tspan>
<tspan x="10" y="1562">        yylineno = 0,</tspan>
<tspan x="10" y="1578">        yyleng = 0,</tspan>
<tspan x="10" y="1594">        recovering = 0,</tspan>
<tspan x="10" y="1610">        TERROR = 2,</tspan>
<tspan x="10" y="1626">        EOF = 1;</tspan>
<tspan x="10" y="1642"></tspan>
<tspan x="10" y="1658">    //this.reductionCount = this.shiftCount = 0;</tspan>
<tspan x="10" y="1674"></tspan>
<tspan x="10" y="1690">    this.lexer.setInput(input);</tspan>
<tspan x="10" y="1706">    this.lexer.yy = this.yy;</tspan>
<tspan x="10" y="1722">    this.yy.lexer = this.lexer;</tspan>
<tspan x="10" y="1738">    if (typeof this.lexer.yylloc == 'undefined')</tspan>
<tspan x="10" y="1754">        this.lexer.yylloc = {};</tspan>
<tspan x="10" y="1770">    var yyloc = this.lexer.yylloc;</tspan>
<tspan x="10" y="1786">    lstack.push(yyloc);</tspan>
<tspan x="10" y="1802"></tspan>
<tspan x="10" y="1818">    if (typeof this.yy.parseError === 'function')</tspan>
<tspan x="10" y="1834">        this.parseError = this.yy.parseError;</tspan>
<tspan x="10" y="1850"></tspan>
<tspan x="10" y="1866">    function popStack (n) {</tspan>
<tspan x="10" y="1882">        stack.length = stack.length - 2*n;</tspan>
<tspan x="10" y="1898">        vstack.length = vstack.length - n;</tspan>
<tspan x="10" y="1914">        lstack.length = lstack.length - n;</tspan>
<tspan x="10" y="1930">    }</tspan>
<tspan x="10" y="1946"></tspan>
<tspan x="10" y="1962">    function lex() {</tspan>
<tspan x="10" y="1978">        var token;</tspan>
<tspan x="10" y="1994">        token = self.lexer.lex() || 1; // $end = 1</tspan>
<tspan x="10" y="2010">        // if token isn't its numeric value, convert</tspan>
<tspan x="10" y="2026">        if (typeof token !== 'number') {</tspan>
<tspan x="10" y="2042">            token = self.symbols_[token] || token;</tspan>
<tspan x="10" y="2058">        }</tspan>
<tspan x="10" y="2074">        return token;</tspan>
<tspan x="10" y="2090">    }</tspan>
<tspan x="10" y="2106"></tspan>
<tspan x="10" y="2122">    var symbol, preErrorSymbol, state, action, a, r, yyval={},p,len,newState, expected;</tspan>
<tspan x="10" y="2138">    while (true) {</tspan>
<tspan x="10" y="2154">        // retreive state number from top of stack</tspan>
<tspan x="10" y="2170">        state = stack[stack.length-1];</tspan>
<tspan x="10" y="2186"></tspan>
<tspan x="10" y="2202">        // use default actions if available</tspan>
<tspan x="10" y="2218">        if (this.defaultActions[state]) {</tspan>
<tspan x="10" y="2234">            action = this.defaultActions[state];</tspan>
<tspan x="10" y="2250">        } else {</tspan>
<tspan x="10" y="2266">            if (symbol == null)</tspan>
<tspan x="10" y="2282">                symbol = lex();</tspan>
<tspan x="10" y="2298">            // read action for current state and first input</tspan>
<tspan x="10" y="2314">            action = table[state] &amp;&amp; table[state][symbol];</tspan>
<tspan x="10" y="2330">        }</tspan>
<tspan x="10" y="2346"></tspan>
<tspan x="10" y="2362">        // handle parse error</tspan>
<tspan x="10" y="2378">        _handle_error:</tspan>
<tspan x="10" y="2394">        if (typeof action === 'undefined' || !action.length || !action[0]) {</tspan>
<tspan x="10" y="2410"></tspan>
<tspan x="10" y="2426">            if (!recovering) {</tspan>
<tspan x="10" y="2442">                // Report error</tspan>
<tspan x="10" y="2458">                expected = [];</tspan>
<tspan x="10" y="2474">                for (p in table[state]) if (this.terminals_[p] &amp;&amp; p &gt; 2) {</tspan>
<tspan x="10" y="2490">                    expected.push("'"+this.terminals_[p]+"'");</tspan>
<tspan x="10" y="2506">                }</tspan>
<tspan x="10" y="2522">                var errStr = '';</tspan>
<tspan x="10" y="2538">                if (this.lexer.showPosition) {</tspan>
<tspan x="10" y="2554">                    errStr = 'Parse error on line '+(yylineno+1)+":\n"+this.lexer.showPosition()\</tspan>
<tspan x="10" y="2570">+"\nExpecting "+expected.join(', ') + ", got '" + this.terminals_[symbol]+ "'";</tspan>
<tspan x="10" y="2586">                } else {</tspan>
<tspan x="10" y="2602">                    errStr = 'Parse error on line '+(yylineno+1)+": Unexpected " +</tspan>
<tspan x="10" y="2618">                                  (symbol == 1 /*EOF*/ ? "end of input" :</tspan>
<tspan x="10" y="2634">                                              ("'"+(this.terminals_[symbol] || symbol)+"'"));</tspan>
<tspan x="10" y="2650">                }</tspan>
<tspan x="10" y="2666">                this.parseError(errStr,</tspan>
<tspan x="10" y="2682">                    {text: this.lexer.match, token: this.terminals_[symbol] || symbol, line: thi\</tspan>
<tspan x="10" y="2698">s.lexer.yylineno, loc: yyloc, expected: expected});</tspan>
<tspan x="10" y="2714">            }</tspan>
<tspan x="10" y="2730"></tspan>
<tspan x="10" y="2746">            // just recovered from another error</tspan>
<tspan x="10" y="2762">            if (recovering == 3) {</tspan>
<tspan x="10" y="2778">                if (symbol == EOF) {</tspan>
<tspan x="10" y="2794">                    throw new Error(errStr || 'Parsing halted.');</tspan>
<tspan x="10" y="2810">                }</tspan>
<tspan x="10" y="2826"></tspan>
<tspan x="10" y="2842">                // discard current lookahead and grab another</tspan>
<tspan x="10" y="2858">                yyleng = this.lexer.yyleng;</tspan>
<tspan x="10" y="2874">                yytext = this.lexer.yytext;</tspan>
<tspan x="10" y="2890">                yylineno = this.lexer.yylineno;</tspan>
<tspan x="10" y="2906">                yyloc = this.lexer.yylloc;</tspan>
<tspan x="10" y="2922">                symbol = lex();</tspan>
<tspan x="10" y="2938">            }</tspan>
<tspan x="10" y="2954"></tspan>
<tspan x="10" y="2970">            // try to recover from error</tspan>
<tspan x="10" y="2986">            while (1) {</tspan>
<tspan x="10" y="3002">                // check for error recovery rule in this state</tspan>
<tspan x="10" y="3018">                if ((TERROR.toString()) in table[state]) {</tspan>
<tspan x="10" y="3034">                    break;</tspan>
<tspan x="10" y="3050">                }</tspan>
<tspan x="10" y="3066">                if (state == 0) {</tspan>
<tspan x="10" y="3082">                    throw new Error(errStr || 'Parsing halted.');</tspan>
<tspan x="10" y="3098">                }</tspan>
<tspan x="10" y="3114">                popStack(1);</tspan>
<tspan x="10" y="3130">                state = stack[stack.length-1];</tspan>
<tspan x="10" y="3146">            }</tspan>
<tspan x="10" y="3162"></tspan>
<tspan x="10" y="3178">            preErrorSymbol = symbol; // save the lookahead token</tspan>
<tspan x="10" y="3194">            symbol = TERROR;         // insert generic error symbol as new lookahead</tspan>
<tspan x="10" y="3210">            state = stack[stack.length-1];</tspan>
<tspan x="10" y="3226">            action = table[state] &amp;&amp; table[state][TERROR];</tspan>
<tspan x="10" y="3242">            recovering = 3; // allow 3 real symbols to be shifted before reporting a new error</tspan>
<tspan x="10" y="3258">        }</tspan>
<tspan x="10" y="3274"></tspan>
<tspan x="10" y="3290">        // this shouldn't happen, unless resolve defaults are off</tspan>
<tspan x="10" y="3306">        if (action[0] instanceof Array &amp;&amp; action.length &gt; 1) {</tspan>
<tspan x="10" y="3322">            throw new Error('Parse Error: multiple actions possible at state: '+state+', token: \</tspan>
<tspan x="10" y="3338">'+symbol);</tspan>
<tspan x="10" y="3354">        }</tspan>
<tspan x="10" y="3370"></tspan>
<tspan x="10" y="3386">        switch (action[0]) {</tspan>
<tspan x="10" y="3402"></tspan>
<tspan x="10" y="3418">            case 1: // shift</tspan>
<tspan x="10" y="3434">                //this.shiftCount++;</tspan>
<tspan x="10" y="3450"></tspan>
<tspan x="10" y="3466">                stack.push(symbol);</tspan>
<tspan x="10" y="3482">                vstack.push(this.lexer.yytext);</tspan>
<tspan x="10" y="3498">                lstack.push(this.lexer.yylloc);</tspan>
<tspan x="10" y="3514">                stack.push(action[1]); // push state</tspan>
<tspan x="10" y="3530">                symbol = null;</tspan>
<tspan x="10" y="3546">                if (!preErrorSymbol) { // normal execution/no error</tspan>
<tspan x="10" y="3562">                    yyleng = this.lexer.yyleng;</tspan>
<tspan x="10" y="3578">                    yytext = this.lexer.yytext;</tspan>
<tspan x="10" y="3594">                    yylineno = this.lexer.yylineno;</tspan>
<tspan x="10" y="3610">                    yyloc = this.lexer.yylloc;</tspan>
<tspan x="10" y="3626">                    if (recovering &gt; 0)</tspan>
<tspan x="10" y="3642">                        recovering--;</tspan>
<tspan x="10" y="3658">                } else { // error just occurred, resume old lookahead f/ before error</tspan>
<tspan x="10" y="3674">                    symbol = preErrorSymbol;</tspan>
<tspan x="10" y="3690">                    preErrorSymbol = null;</tspan>
<tspan x="10" y="3706">                }</tspan>
<tspan x="10" y="3722">                break;</tspan>
<tspan x="10" y="3738"></tspan>
<tspan x="10" y="3754">            case 2: // reduce</tspan>
<tspan x="10" y="3770">                //this.reductionCount++;</tspan>
<tspan x="10" y="3786"></tspan>
<tspan x="10" y="3802">                len = this.productions_[action[1]][1];</tspan>
<tspan x="10" y="3818"></tspan>
<tspan x="10" y="3834">                // perform semantic action</tspan>
<tspan x="10" y="3850">                yyval.$ = vstack[vstack.length-len]; // default to $$ = $1</tspan>
<tspan x="10" y="3866">                // default location, uses first token for firsts, last for lasts</tspan>
<tspan x="10" y="3882">                yyval._$ = {</tspan>
<tspan x="10" y="3898">                    first_line: lstack[lstack.length-(len||1)].first_line,</tspan>
<tspan x="10" y="3914">                    last_line: lstack[lstack.length-1].last_line,</tspan>
<tspan x="10" y="3930">                    first_column: lstack[lstack.length-(len||1)].first_column,</tspan>
<tspan x="10" y="3946">                    last_column: lstack[lstack.length-1].last_column</tspan>
<tspan x="10" y="3962">                };</tspan>
<tspan x="10" y="3978">                r = this.performAction.call(yyval, yytext, yyleng, yylineno, this.yy, action[1],\</tspan>
<tspan x="10" y="3994"> vstack, lstack);</tspan>
<tspan x="10" y="4010"></tspan>
<tspan x="10" y="4026">                if (typeof r !== 'undefined') {</tspan>
<tspan x="10" y="4042">                    return r;</tspan>
<tspan x="10" y="4058">                }</tspan>
<tspan x="10" y="4074"></tspan>
<tspan x="10" y="4090">                // pop off stack</tspan>
<tspan x="10" y="4106">                if (len) {</tspan>
<tspan x="10" y="4122">                    stack = stack.slice(0,-1*len*2);</tspan>
<tspan x="10" y="4138">                    vstack = vstack.slice(0, -1*len);</tspan>
<tspan x="10" y="4154">                    lstack = lstack.slice(0, -1*len);</tspan>
<tspan x="10" y="4170">                }</tspan>
<tspan x="10" y="4186"></tspan>
<tspan x="10" y="4202">                stack.push(this.productions_[action[1]][0]);    // push nonterminal (reduce)</tspan>
<tspan x="10" y="4218">                vstack.push(yyval.$);</tspan>
<tspan x="10" y="4234">                lstack.push(yyval._$);</tspan>
<tspan x="10" y="4250">                // goto new state = table[STATE][NONTERMINAL]</tspan>
<tspan x="10" y="4266">                newState = table[stack[stack.length-2]][stack[stack.length-1]];</tspan>
<tspan x="10" y="4282">                stack.push(newState);</tspan>
<tspan x="10" y="4298">                break;</tspan>
<tspan x="10" y="4314"></tspan>
<tspan x="10" y="4330">            case 3: // accept</tspan>
<tspan x="10" y="4346">                return true;</tspan>
<tspan x="10" y="4362">        }</tspan>
<tspan x="10" y="4378"></tspan>
<tspan x="10" y="4394">    }</tspan>
<tspan x="10" y="4410"></tspan>
<tspan x="10" y="4426">    return true;</tspan>
<tspan x="10" y="4442">}};</tspan>
<tspan x="10" y="4458">/* Jison generated lexer */</tspan>
<tspan x="10" y="4474">var lexer = (function(){</tspan>
<tspan x="10" y="4490">var lexer = ({EOF:1,</tspan>
<tspan x="10" y="4506">parseError:function parseError(str, hash) {</tspan>
<tspan x="10" y="4522">        if (this.yy.parseError) {</tspan>
<tspan x="10" y="4538">            this.yy.parseError(str, hash);</tspan>
<tspan x="10" y="4554">        } else {</tspan>
<tspan x="10" y="4570">            throw new Error(str);</tspan>
<tspan x="10" y="4586">        }</tspan>
<tspan x="10" y="4602">    },</tspan>
<tspan x="10" y="4618">setInput:function (input) {</tspan>
<tspan x="10" y="4634">        this._input = input;</tspan>
<tspan x="10" y="4650">        this._more = this._less = this.done = false;</tspan>
<tspan x="10" y="4666">        this.yylineno = this.yyleng = 0;</tspan>
<tspan x="10" y="4682">        this.yytext = this.matched = this.match = '';</tspan>
<tspan x="10" y="4698">        this.conditionStack = ['INITIAL'];</tspan>
<tspan x="10" y="4714">        this.yylloc = {first_line:1,first_column:0,last_line:1,last_column:0};</tspan>
<tspan x="10" y="4730">        return this;</tspan>
<tspan x="10" y="4746">    },</tspan>
<tspan x="10" y="4762">input:function () {</tspan>
<tspan x="10" y="4778">        var ch = this._input[0];</tspan>
<tspan x="10" y="4794">        this.yytext+=ch;</tspan>
<tspan x="10" y="4810">        this.yyleng++;</tspan>
<tspan x="10" y="4826">        this.match+=ch;</tspan>
<tspan x="10" y="4842">        this.matched+=ch;</tspan>
<tspan x="10" y="4858">        var lines = ch.match(/\n/);</tspan>
<tspan x="10" y="4874">        if (lines) this.yylineno++;</tspan>
<tspan x="10" y="4890">        this._input = this._input.slice(1);</tspan>
<tspan x="10" y="4906">        return ch;</tspan>
<tspan x="10" y="4922">    },</tspan>
<tspan x="10" y="4938">unput:function (ch) {</tspan>
<tspan x="10" y="4954">        this._input = ch + this._input;</tspan>
<tspan x="10" y="4970">        return this;</tspan>
<tspan x="10" y="4986">    },</tspan>
<tspan x="10" y="5002">more:function () {</tspan>
<tspan x="10" y="5018">        this._more = true;</tspan>
<tspan x="10" y="5034">        return this;</tspan>
<tspan x="10" y="5050">    },</tspan>
<tspan x="10" y="5066">less:function (n) {</tspan>
<tspan x="10" y="5082">        this._input = this.match.slice(n) + this._input;</tspan>
<tspan x="10" y="5098">    },</tspan>
<tspan x="10" y="5114">pastInput:function () {</tspan>
<tspan x="10" y="5130">        var past = this.matched.substr(0, this.matched.length - this.match.length);</tspan>
<tspan x="10" y="5146">        return (past.length &gt; 20 ? '...':'') + past.substr(-20).replace(/\n/g, "");</tspan>
<tspan x="10" y="5162">    },</tspan>
<tspan x="10" y="5178">upcomingInput:function () {</tspan>
<tspan x="10" y="5194">        var next = this.match;</tspan>
<tspan x="10" y="5210">        if (next.length &lt; 20) {</tspan>
<tspan x="10" y="5226">            next += this._input.substr(0, 20-next.length);</tspan>
<tspan x="10" y="5242">        }</tspan>
<tspan x="10" y="5258">        return (next.substr(0,20)+(next.length &gt; 20 ? '...':'')).replace(/\n/g, "");</tspan>
<tspan x="10" y="5274">    },</tspan>
<tspan x="10" y="5290">showPosition:function () {</tspan>
<tspan x="10" y="5306">        var pre = this.pastInput();</tspan>
<tspan x="10" y="5322">        var c = new Array(pre.length + 1).join("-");</tspan>
<tspan x="10" y="5338">        return pre + this.upcomingInput() + "\n" + c+"^";</tspan>
<tspan x="10" y="5354">    },</tspan>
<tspan x="10" y="5370">next:function () {</tspan>
<tspan x="10" y="5386">        if (this.done) {</tspan>
<tspan x="10" y="5402">            return this.EOF;</tspan>
<tspan x="10" y="5418">        }</tspan>
<tspan x="10" y="5434">        if (!this._input) this.done = true;</tspan>
<tspan x="10" y="5450"></tspan>
<tspan x="10" y="5466">        var token,</tspan>
<tspan x="10" y="5482">            match,</tspan>
<tspan x="10" y="5498">            tempMatch,</tspan>
<tspan x="10" y="5514">            index,</tspan>
<tspan x="10" y="5530">            col,</tspan>
<tspan x="10" y="5546">            lines;</tspan>
<tspan x="10" y="5562">        if (!this._more) {</tspan>
<tspan x="10" y="5578">            this.yytext = '';</tspan>
<tspan x="10" y="5594">            this.match = '';</tspan>
<tspan x="10" y="5610">        }</tspan>
<tspan x="10" y="5626">        var rules = this._currentRules();</tspan>
<tspan x="10" y="5642">        for (var i=0;i &lt; rules.length; i++) {</tspan>
<tspan x="10" y="5658">            tempMatch = this._input.match(this.rules[rules[i]]);</tspan>
<tspan x="10" y="5674">            if (tempMatch &amp;&amp; (!match || tempMatch[0].length &gt; match[0].length)) {</tspan>
<tspan x="10" y="5690">                match = tempMatch;</tspan>
<tspan x="10" y="5706">                index = i;</tspan>
<tspan x="10" y="5722">                if (!this.options.flex) break;</tspan>
<tspan x="10" y="5738">            }</tspan>
<tspan x="10" y="5754">        }</tspan>
<tspan x="10" y="5770">        if (match) {</tspan>
<tspan x="10" y="5786">            lines = match[0].match(/\n.*/g);</tspan>
<tspan x="10" y="5802">            if (lines) this.yylineno += lines.length;</tspan>
<tspan x="10" y="5818">            this.yylloc = {first_line: this.yylloc.last_line,</tspan>
<tspan x="10" y="5834">                           last_line: this.yylineno+1,</tspan>
<tspan x="10" y="5850">                           first_column: this.yylloc.last_column,</tspan>
<tspan x="10" y="5866">                           last_column: lines ? lines[lines.length-1].length-1 : this.yylloc.las\</tspan>
<tspan x="10" y="5882">t_column + match[0].length}</tspan>
<tspan x="10" y="5898">            this.yytext += match[0];</tspan>
<tspan x="10" y="5914">            this.match += match[0];</tspan>
<tspan x="10" y="5930">            this.yyleng = this.yytext.length;</tspan>
<tspan x="10" y="5946">            this._more = false;</tspan>
<tspan x="10" y="5962">            this._input = this._input.slice(match[0].length);</tspan>
<tspan x="10" y="5978">            this.matched += match[0];</tspan>
<tspan x="10" y="5994">            token = this.performAction.call(this, this.yy, this, rules[index],this.conditionStac\</tspan>
<tspan x="10" y="6010">k[this.conditionStack.length-1]);</tspan>
<tspan x="10" y="6026">            if (this.done &amp;&amp; this._input) this.done = false;</tspan>
<tspan x="10" y="6042">            if (token) return token;</tspan>
<tspan x="10" y="6058">            else return;</tspan>
<tspan x="10" y="6074">        }</tspan>
<tspan x="10" y="6090">        if (this._input === "") {</tspan>
<tspan x="10" y="6106">            return this.EOF;</tspan>
<tspan x="10" y="6122">        } else {</tspan>
<tspan x="10" y="6138">            this.parseError('Lexical error on line '+(this.yylineno+1)+'. Unrecognized text.\n'+\</tspan>
<tspan x="10" y="6154">this.showPosition(), </tspan>
<tspan x="10" y="6170">                    {text: "", token: null, line: this.yylineno});</tspan>
<tspan x="10" y="6186">        }</tspan>
<tspan x="10" y="6202">    },</tspan>
<tspan x="10" y="6218">lex:function lex() {</tspan>
<tspan x="10" y="6234">        var r = this.next();</tspan>
<tspan x="10" y="6250">        if (typeof r !== 'undefined') {</tspan>
<tspan x="10" y="6266">            return r;</tspan>
<tspan x="10" y="6282">        } else {</tspan>
<tspan x="10" y="6298">            return this.lex();</tspan>
<tspan x="10" y="6314">        }</tspan>
<tspan x="10" y="6330">    },</tspan>
<tspan x="10" y="6346">begin:function begin(condition) {</tspan>
<tspan x="10" y="6362">        this.conditionStack.push(condition);</tspan>
<tspan x="10" y="6378">    },</tspan>
<tspan x="10" y="6394">popState:function popState() {</tspan>
<tspan x="10" y="6410">        return this.conditionStack.pop();</tspan>
<tspan x="10" y="6426">    },</tspan>
<tspan x="10" y="6442">_currentRules:function _currentRules() {</tspan>
<tspan x="10" y="6458">        return this.conditions[this.conditionStack[this.conditionStack.length-1]].rules;</tspan>
<tspan x="10" y="6474">    },</tspan>
<tspan x="10" y="6490">topState:function () {</tspan>
<tspan x="10" y="6506">        return this.conditionStack[this.conditionStack.length-2];</tspan>
<tspan x="10" y="6522">    },</tspan>
<tspan x="10" y="6538">pushState:function begin(condition) {</tspan>
<tspan x="10" y="6554">        this.begin(condition);</tspan>
<tspan x="10" y="6570">    }});</tspan>
<tspan x="10" y="6586">lexer.options = {};</tspan>
<tspan x="10" y="6602">lexer.performAction = function anonymous(yy,yy_,$avoiding_name_collisions,YY_START) {</tspan>
<tspan x="10" y="6618"></tspan>
<tspan x="10" y="6634">var YYSTATE=YY_START</tspan>
<tspan x="10" y="6650">switch($avoiding_name_collisions) {</tspan>
<tspan x="10" y="6666">case 0:/* skip whitespace */</tspan>
<tspan x="10" y="6682">break;</tspan>
<tspan x="10" y="6698">case 1:return 6</tspan>
<tspan x="10" y="6714">break;</tspan>
<tspan x="10" y="6730">case 2:yy_.yytext = yy_.yytext.substr(1,yy_.yyleng-2); return 4</tspan>
<tspan x="10" y="6746">break;</tspan>
<tspan x="10" y="6762">case 3:return 17</tspan>
<tspan x="10" y="6778">break;</tspan>
<tspan x="10" y="6794">case 4:return 18</tspan>
<tspan x="10" y="6810">break;</tspan>
<tspan x="10" y="6826">case 5:return 23</tspan>
<tspan x="10" y="6842">break;</tspan>
<tspan x="10" y="6858">case 6:return 24</tspan>
<tspan x="10" y="6874">break;</tspan>
<tspan x="10" y="6890">case 7:return 22</tspan>
<tspan x="10" y="6906">break;</tspan>
<tspan x="10" y="6922">case 8:return 21</tspan>
<tspan x="10" y="6938">break;</tspan>
<tspan x="10" y="6954">case 9:return 10</tspan>
<tspan x="10" y="6970">break;</tspan>
<tspan x="10" y="6986">case 10:return 11</tspan>
<tspan x="10" y="7002">break;</tspan>
<tspan x="10" y="7018">case 11:return 8</tspan>
<tspan x="10" y="7034">break;</tspan>
<tspan x="10" y="7050">case 12:return 14</tspan>
<tspan x="10" y="7066">break;</tspan>
<tspan x="10" y="7082">case 13:return 'INVALID'</tspan>
<tspan x="10" y="7098">break;</tspan>
<tspan x="10" y="7114">}</tspan>
<tspan x="10" y="7130">};</tspan>
<tspan x="10" y="7146">lexer.rules = [/^(?:\s+)/,/^(?:(-?([0-9]|[1-9][0-9]+))(\.[0-9]+)?([eE][-+]?[0-9]+)?\b)/,/^(?:"(?\</tspan>
<tspan x="10" y="7162">:\\[\\"bfnrt/]|\\u[a-fA-F0-9]{4}|[^\\\0-\x09\x0a-\x1f"])*")/,/^(?:\{)/,/^(?:\})/,/^(?:\[)/,/^(?:\</tspan>
<tspan x="10" y="7178">\])/,/^(?:,)/,/^(?::)/,/^(?:true\b)/,/^(?:false\b)/,/^(?:null\b)/,/^(?:$)/,/^(?:.)/];</tspan>
<tspan x="10" y="7194">lexer.conditions = {"INITIAL":{"rules":[0,1,2,3,4,5,6,7,8,9,10,11,12,13],"inclusive":true}};</tspan>
<tspan x="10" y="7210"></tspan>
<tspan x="10" y="7226"></tspan>
<tspan x="10" y="7242">;</tspan>
<tspan x="10" y="7258">return lexer;})()</tspan>
<tspan x="10" y="7274">parser.lexer = lexer;</tspan>
<tspan x="10" y="7290">return parser;</tspan>
<tspan x="10" y="7306">})();</tspan>
<tspan x="10" y="7322">if (typeof require !== 'undefined' &amp;&amp; typeof exports !== 'undefined') {</tspan>
<tspan x="10" y="7338">exports.parser = jsonlint;</tspan>
<tspan x="10" y="7354">exports.parse = function () { return jsonlint.parse.apply(jsonlint, arguments); }</tspan>
<tspan x="10" y="7370">exports.main = function commonjsMain(args) {</tspan>
<tspan x="10" y="7386">    if (!args[1])</tspan>
<tspan x="10" y="7402">        throw new Error('Usage: '+args[0]+' FILE');</tspan>
<tspan x="10" y="7418">    if (typeof process !== 'undefined') {</tspan>
<tspan x="10" y="7434">        var source = require('fs').readFileSync(require('path').join(process.cwd(), args[1]), "u\</tspan>
<tspan x="10" y="7450">tf8");</tspan>
<tspan x="10" y="7466">    } else {</tspan>
<tspan x="10" y="7482">        var cwd = require("file").path(require("file").cwd());</tspan>
<tspan x="10" y="7498">        var source = cwd.join(args[1]).read({charset: "utf-8"});</tspan>
<tspan x="10" y="7514">    }</tspan>
<tspan x="10" y="7530">    return exports.parser.parse(source);</tspan>
<tspan x="10" y="7546">}</tspan>
<tspan x="10" y="7562">if (typeof module !== 'undefined' &amp;&amp; require.main === module) {</tspan>
<tspan x="10" y="7578">  exports.main(typeof process !== 'undefined' ? process.argv.slice(1) : require("system").args);</tspan>
<tspan x="10" y="7594">}</tspan>
<tspan x="10" y="7610">}return exports;})()</tspan>
<tspan x="10" y="7626">created apidoc file:///home/travis/build/npmdoc/node-npmdoc-jsonlint/tmp/build/apidoc.html</tspan>
<tspan x="10" y="7642"></tspan>
<tspan x="10" y="7658"></tspan>
<tspan x="10" y="7674">browserTest - created electron entry-page /home/travis/build/npmdoc/node-npmdoc-jsonlint/tmp/ele\</tspan>
<tspan x="10" y="7690">ctron.15b46ae99280.85ecd5b08d0e2.html</tspan>
<tspan x="10" y="7706"></tspan>
<tspan x="10" y="7722">[node test-case 1 of 6 passed] - testCase_buildLib_default</tspan>
<tspan x="10" y="7738">[node test-case 2 of 6 passed] - testCase_buildReadme_default</tspan>
<tspan x="10" y="7754">[node test-case 3 of 6 passed] - testCase_buildTest_default</tspan>
<tspan x="10" y="7770"></tspan>
<tspan x="10" y="7786">browserTest - created electron entry-page /home/travis/build/npmdoc/node-npmdoc-jsonlint/tmp/ele\</tspan>
<tspan x="10" y="7802">ctron.15b46ae996e0.bf078b61badc7.html</tspan>
<tspan x="10" y="7818"></tspan>
<tspan x="10" y="7834">Xlib:  extension "RANDR" missing on display ":99.0".</tspan>
<tspan x="10" y="7850">Xlib:  extension "RANDR" missing on display ":99.0".</tspan>
<tspan x="10" y="7866">merging file:///home/travis/build/npmdoc/node-npmdoc-jsonlint/tmp/build/test-report.json to test\</tspan>
<tspan x="10" y="7882">-report</tspan>
<tspan x="10" y="7898">Xlib:  extension "RANDR" missing on display ":99.0".</tspan>
<tspan x="10" y="7914">[6112:0407/043139:WARNING:audio_manager.cc(314)] Multiple instances of AudioManager detected</tspan>
<tspan x="10" y="7930">[6112:0407/043139:WARNING:audio_manager.cc(275)] Multiple instances of AudioManager detected</tspan>
<tspan x="10" y="7946">[6155:0407/043140:ERROR:sandbox_linux.cc(343)] InitializeSandbox() called with multiple threads \</tspan>
<tspan x="10" y="7962">in process gpu-process. </tspan>
<tspan x="10" y="7978">&gt; server listening on http-port 46073</tspan>
<tspan x="10" y="7994">[6112:0407/043140:ERROR:browser_gpu_channel_host_factory.cc(131)] Failed to create channel.</tspan>
<tspan x="10" y="8010">merging file:///home/travis/build/npmdoc/node-npmdoc-jsonlint/tmp/build/test-report.json to test\</tspan>
<tspan x="10" y="8026">-report</tspan>
<tspan x="10" y="8042">Xlib:  extension "RANDR" missing on display ":99.0".</tspan>
<tspan x="10" y="8058">[6124:0407/043140:WARNING:audio_manager.cc(314)] Multiple instances of AudioManager detected</tspan>
<tspan x="10" y="8074">[6124:0407/043140:WARNING:audio_manager.cc(275)] Multiple instances of AudioManager detected</tspan>
<tspan x="10" y="8090">[6188:0407/043140:ERROR:sandbox_linux.cc(343)] InitializeSandbox() called with multiple threads \</tspan>
<tspan x="10" y="8106">in process gpu-process. </tspan>
<tspan x="10" y="8122">[6124:0407/043140:ERROR:browser_gpu_channel_host_factory.cc(131)] Failed to create channel.</tspan>
<tspan x="10" y="8138"></tspan>
<tspan x="10" y="8154">browserTest - opened url /home/travis/build/npmdoc/node-npmdoc-jsonlint/tmp/build/apidoc.html</tspan>
<tspan x="10" y="8170"></tspan>
<tspan x="10" y="8186"></tspan>
<tspan x="10" y="8202">browserTest - opened url http://127.0.0.1:65517?modeTest=1</tspan>
<tspan x="10" y="8218"></tspan>
<tspan x="10" y="8234">[6124:0407/043142:INFO:CONSOLE(250)] "----------|-----------|-----------|-----------|-----------\</tspan>
<tspan x="10" y="8250">|</tspan>
<tspan x="10" y="8266">File      |   % Stmts |% Branches |   % Funcs |   % Lines |</tspan>
<tspan x="10" y="8282">----------|-----------|-----------|-----------|-----------|</tspan>
<tspan x="10" y="8298">----------|-----------|-----------|-----------|-----------|</tspan>
<tspan x="10" y="8314">All files |       100 |       100 |       100 |       100 |</tspan>
<tspan x="10" y="8330">----------|-----------|-----------|-----------|-----------|</tspan>
<tspan x="10" y="8346">", source: file:///home/travis/build/npmdoc/node-npmdoc-jsonlint/tmp/electron.15b46ae996e0.bf078\</tspan>
<tspan x="10" y="8362">b61badc7.html (250)</tspan>
<tspan x="10" y="8378">[6124:0407/043142:INFO:CONSOLE(250)] "created coverage file:///tmp/build/coverage.html/index.htm\</tspan>
<tspan x="10" y="8394">l", source: file:///home/travis/build/npmdoc/node-npmdoc-jsonlint/tmp/electron.15b46ae996e0.bf07\</tspan>
<tspan x="10" y="8410">8b61badc7.html (250)</tspan>
<tspan x="10" y="8426">[node test-case 4 of 6 passed] - testCase_buildApp_default</tspan>
<tspan x="10" y="8442"></tspan>
<tspan x="10" y="8458">browserTest - created screenCapture file:///home/travis/build/npmdoc/node-npmdoc-jsonlint/tmp/bu\</tspan>
<tspan x="10" y="8474">ild/screenCapture.npmTest.browser._2Fhome_2Ftravis_2Fbuild_2Fnpmdoc_2Fnode-npmdoc-jsonlint_2Ftmp\</tspan>
<tspan x="10" y="8490">_2Fbuild_2Fapidoc.html.png</tspan>
<tspan x="10" y="8506"></tspan>
<tspan x="10" y="8522">browserTest - created screenCapture file:///home/travis/build/npmdoc/node-npmdoc-jsonlint/tmp/bu\</tspan>
<tspan x="10" y="8538">ild/screenCapture.npmTest.browser._2Fhome_2Ftravis_2Fbuild_2Fnpmdoc_2Fnode-npmdoc-jsonlint_2Ftmp\</tspan>
<tspan x="10" y="8554">_2Fbuild_2Fapidoc.html.html</tspan>
<tspan x="10" y="8570"></tspan>
<tspan x="10" y="8586">browserTest - exit-code 0 - /home/travis/build/npmdoc/node-npmdoc-jsonlint/tmp/build/apidoc.html</tspan>
<tspan x="10" y="8602"></tspan>
<tspan x="10" y="8618">[node test-case 5 of 6 passed] - testCase_buildApidoc_default</tspan>
<tspan x="10" y="8634"></tspan>
<tspan x="10" y="8650">browserTest - created screenCapture file:///home/travis/build/npmdoc/node-npmdoc-jsonlint/tmp/bu\</tspan>
<tspan x="10" y="8666">ild/screenCapture.npmTest.browser..png</tspan>
<tspan x="10" y="8682"></tspan>
<tspan x="10" y="8698">browserTest - created screenCapture file:///home/travis/build/npmdoc/node-npmdoc-jsonlint/tmp/bu\</tspan>
<tspan x="10" y="8714">ild/screenCapture.npmTest.browser..html</tspan>
<tspan x="10" y="8730"></tspan>
<tspan x="10" y="8746">browserTest - exit-code 0 - http://127.0.0.1:65517?modeTest=1</tspan>
<tspan x="10" y="8762"></tspan>
<tspan x="10" y="8778"></tspan>
<tspan x="10" y="8794">browserTest - merged coverage from /home/travis/build/npmdoc/node-npmdoc-jsonlint/tmp/coverage.n\</tspan>
<tspan x="10" y="8810">pmTest.browser.%2F.json</tspan>
<tspan x="10" y="8826"></tspan>
<tspan x="10" y="8842"></tspan>
<tspan x="10" y="8858">browserTest - merging test-report from /home/travis/build/npmdoc/node-npmdoc-jsonlint/tmp/test-r\</tspan>
<tspan x="10" y="8874">eport.npmTest.browser.%2F.json</tspan>
<tspan x="10" y="8890"></tspan>
<tspan x="10" y="8906">[node test-case 6 of 6 passed] - testCase_webpage_default</tspan>
<tspan x="10" y="8922">-----------------------------|-----------|-----------|-----------|-----------|</tspan>
<tspan x="10" y="8938">File                         |   % Stmts |% Branches |   % Funcs |   % Lines |</tspan>
<tspan x="10" y="8954">-----------------------------|-----------|-----------|-----------|-----------|</tspan>
<tspan x="10" y="8970">   node-npmdoc-jsonlint/     |       100 |       100 |       100 |       100 |</tspan>
<tspan x="10" y="8986">      example.js             |       100 |       100 |       100 |       100 |</tspan>
<tspan x="10" y="9002">      lib.npmdoc_jsonlint.js |       100 |       100 |       100 |       100 |</tspan>
<tspan x="10" y="9018">      test.js                |       100 |       100 |       100 |       100 |</tspan>
<tspan x="10" y="9034">-----------------------------|-----------|-----------|-----------|-----------|</tspan>
<tspan x="10" y="9050">All files                    |       100 |       100 |       100 |       100 |</tspan>
<tspan x="10" y="9066">-----------------------------|-----------|-----------|-----------|-----------|</tspan>
<tspan x="10" y="9082"></tspan>
<tspan x="10" y="9098">created coverage file:///home/travis/build/npmdoc/node-npmdoc-jsonlint/tmp/build/coverage.html/i\</tspan>
<tspan x="10" y="9114">ndex.html</tspan>
<tspan x="10" y="9130">merging file:///home/travis/build/npmdoc/node-npmdoc-jsonlint/tmp/build/test-report.json to test\</tspan>
<tspan x="10" y="9146">-report</tspan>
<tspan x="10" y="9162"></tspan>
<tspan x="10" y="9178">-------------------------------------------------------</tspan>
<tspan x="10" y="9194">| test-report - buildNpmdoc - node - linux v6.10.2 - 2017-04-07T04:30:59.958Z</tspan>
<tspan x="10" y="9210">|   54330 ms            0 failed        6 passed      |</tspan>
<tspan x="10" y="9226">-------------------------------------------------------</tspan>
<tspan x="10" y="9242"></tspan>
<tspan x="10" y="9258">created test-report file:///home/travis/build/npmdoc/node-npmdoc-jsonlint/tmp/build/test-report.\</tspan>
<tspan x="10" y="9274">html</tspan>
<tspan x="10" y="9290"></tspan>
<tspan x="10" y="9306"></tspan>
<tspan x="10" y="9322">npmTest - 0 failed tests</tspan>
<tspan x="10" y="9338"></tspan>
<tspan x="10" y="9354"></tspan>
<tspan x="10" y="9370">[MODE_BUILD=npmTest] - 2017-04-07T04:31:57Z - EXIT_CODE - 0</tspan>
</text>
</svg>
